<svg width="138" height="163" viewBox="0 0 138 163" fill="none" xmlns="http://www.w3.org/2000/svg">
<path d="M94.9748 0L80.3743 15.8083H109.575L94.9748 0Z" fill="#0C235C"/>
<path d="M58.9361 95.6648L27.4038 14.8892H44.6008L69.7199 79.1166L63.1375 95.6909C62.9861 96.0477 62.7304 96.3524 62.4028 96.5665C62.0753 96.7806 61.6905 96.8944 61.2971 96.8936C61.2971 96.8936 59.5297 97.0207 58.9361 95.6648Z" fill="white"/>
<path d="M16.4343 144.511H14.2988L0 112.34H2.69263L15.4163 141.728L28.1831 112.34H30.7364L16.4343 144.511Z" fill="white"/>
<path d="M43.4104 144.283V112.34H66.5299V114.485H45.8245V127.125H64.4408V129.27H45.8245V142.154H66.762V144.299L43.4104 144.283Z" fill="white"/>
<path d="M101.279 139.547C100.749 140.615 99.9885 141.557 99.0505 142.307C98.046 143.112 96.8963 143.724 95.6615 144.11C94.2593 144.554 92.7938 144.774 91.3208 144.762C88.9115 144.79 86.5206 144.347 84.2874 143.458C82.064 142.524 80.0161 141.229 78.229 139.628L79.8074 137.849C80.6425 138.62 81.5348 139.329 82.4769 139.97C84.1712 141.122 86.0911 141.915 88.1141 142.298C89.2159 142.503 90.3354 142.603 91.4567 142.594C92.5927 142.606 93.7237 142.445 94.8092 142.115C95.7522 141.837 96.6339 141.388 97.409 140.792C98.1018 140.247 98.6673 139.562 99.067 138.784C99.4725 138 99.6795 137.131 99.6706 136.251V136.16C99.6828 135.382 99.549 134.609 99.2759 133.879C98.9707 133.155 98.4737 132.524 97.8368 132.053C96.9825 131.422 96.0354 130.922 95.0281 130.57C93.5536 130.048 92.0388 129.644 90.4984 129.361C88.7906 129.035 87.1135 128.57 85.4845 127.969C84.2531 127.528 83.1012 126.896 82.0723 126.098C81.2309 125.438 80.5689 124.584 80.1457 123.611C79.727 122.582 79.5218 121.48 79.5422 120.371V120.28C79.5328 119.131 79.8034 117.997 80.3314 116.972C80.8663 115.945 81.6088 115.037 82.5133 114.302C83.4917 113.515 84.609 112.912 85.8095 112.523C87.156 112.08 88.5679 111.859 89.9877 111.871C92.0648 111.826 94.1329 112.151 96.0925 112.829C97.9131 113.534 99.607 114.521 101.11 115.753L99.5777 117.624C96.9363 115.239 93.4608 113.948 89.875 114.019C88.7649 114.004 87.6596 114.166 86.602 114.498C85.6944 114.783 84.8455 115.224 84.0951 115.802C83.425 116.318 82.8783 116.972 82.4934 117.718C82.124 118.44 81.9331 119.237 81.9363 120.045V120.137C81.9251 120.922 82.0588 121.703 82.331 122.441C82.6332 123.179 83.1299 123.825 83.7701 124.312C84.6471 124.972 85.6269 125.488 86.6717 125.841C88.2156 126.382 89.7984 126.809 91.407 127.118C95.1828 127.881 97.9064 128.954 99.5777 130.336C101.249 131.718 102.091 133.583 102.105 135.932V136.023C102.112 137.245 101.829 138.451 101.279 139.547Z" fill="white"/>
<path d="M126.56 114.485V144.283H124.143V114.485H112.815V112.34H137.888V114.485H126.56Z" fill="white"/>
<path d="M5.22278 153.237H6.15459L8.31997 159.429L10.3991 153.201H11.1021L13.1813 159.429L15.35 153.237H16.2486L13.5394 160.733H12.8132L10.7374 154.687L8.64494 160.733H7.92867L5.22278 153.237Z" fill="white"/>
<path d="M17.6944 157.947V157.927C17.6944 156.34 18.8319 155.062 20.3804 155.062C22.0385 155.062 22.9902 156.366 22.9902 157.969C22.997 158.058 22.997 158.148 22.9902 158.237H18.54C18.5556 158.738 18.7705 159.214 19.1387 159.562C19.5069 159.91 19.9991 160.102 20.5098 160.098C20.8433 160.101 21.1735 160.033 21.4779 159.899C21.7823 159.765 22.0538 159.568 22.2739 159.322L22.7945 159.778C22.5133 160.113 22.1579 160.38 21.7556 160.559C21.3533 160.738 20.9147 160.825 20.4733 160.812C20.0968 160.812 19.7242 160.737 19.3781 160.591C19.032 160.445 18.7196 160.232 18.4598 159.964C18.2 159.696 17.9982 159.379 17.8666 159.032C17.7351 158.686 17.6765 158.316 17.6944 157.947ZM22.1446 157.621C22.0584 156.617 21.4814 155.746 20.3572 155.746C19.3823 155.746 18.6462 156.545 18.54 157.621H22.1446Z" fill="white"/>
<path d="M25.1158 159.104V159.081C25.1158 157.92 26.0908 157.304 27.51 157.304C28.0924 157.298 28.6724 157.378 29.2311 157.539V157.347C29.2311 156.369 28.6143 155.844 27.573 155.844C26.9819 155.852 26.4002 155.991 25.8719 156.252L25.6232 155.58C26.2575 155.277 26.954 155.121 27.6593 155.124C27.9864 155.101 28.315 155.143 28.6254 155.247C28.9359 155.351 29.2219 155.515 29.4665 155.73C29.6686 155.945 29.824 156.199 29.9232 156.475C30.0224 156.751 30.0633 157.045 30.0435 157.337V160.701H29.241V159.853C29.0038 160.158 28.6964 160.403 28.3442 160.567C27.992 160.732 27.6049 160.813 27.2149 160.802C26.167 160.802 25.1158 160.215 25.1158 159.104ZM29.241 158.677V158.126C28.7027 157.969 28.1443 157.89 27.583 157.891C26.5318 157.891 25.9482 158.338 25.9482 159.029V159.051C25.9482 159.742 26.6114 160.147 27.3542 160.147C28.3954 160.15 29.241 159.534 29.241 158.66V158.677Z" fill="white"/>
<path d="M32.9714 152.91H33.7938V160.681H32.9614L32.9714 152.91Z" fill="white"/>
<path d="M37.11 159.224V155.903H36.3307V155.192H37.11V153.53H37.9423V155.192H39.7197V155.912H37.9423V159.13C37.9423 159.798 38.3236 160.042 38.884 160.042C39.1663 160.044 39.4449 159.979 39.6965 159.853V160.554C39.39 160.713 39.048 160.793 38.7017 160.789C37.803 160.779 37.11 160.342 37.11 159.224Z" fill="white"/>
<path d="M42.2863 152.91H43.1219V156.134C43.31 155.799 43.5884 155.521 43.9265 155.331C44.2646 155.142 44.6494 155.047 45.0386 155.058C46.3915 155.058 47.1807 155.954 47.1807 157.262V160.681H46.3484V157.473C46.3484 156.453 45.7847 155.814 44.7998 155.814C44.5721 155.811 44.3461 155.854 44.1361 155.941C43.9261 156.027 43.7364 156.156 43.579 156.317C43.4215 156.479 43.2997 156.671 43.2211 156.881C43.1424 157.091 43.1087 157.315 43.1219 157.539V160.69H42.2863V152.91Z" fill="white"/>
<path d="M54.5192 153.236H55.3847L58.1469 157.301L60.9059 153.236H61.7747V160.687H60.9191V154.648L58.1569 158.64H58.1138L55.3482 154.657V160.684H54.5192V153.236Z" fill="white"/>
<path d="M64.444 159.103V159.081C64.444 157.92 65.4189 157.304 66.8348 157.304C67.4183 157.298 67.9994 157.377 68.5592 157.539V157.347C68.5592 156.369 67.9391 155.844 66.9012 155.844C66.31 155.851 65.7282 155.99 65.2 156.251L64.9513 155.58C65.5856 155.277 66.2821 155.121 66.9874 155.124C67.3145 155.101 67.643 155.143 67.9534 155.247C68.2638 155.351 68.5498 155.515 68.7946 155.73C68.9955 155.946 69.1499 156.2 69.2485 156.476C69.3471 156.752 69.3878 157.045 69.3683 157.337V160.701H68.5691V159.853C68.3319 160.158 68.0246 160.402 67.6723 160.567C67.3201 160.732 66.933 160.812 66.543 160.802C65.4918 160.802 64.444 160.215 64.444 159.103ZM68.5691 158.676V158.126C68.0308 157.969 67.4724 157.89 66.9111 157.891C65.8632 157.891 65.2763 158.337 65.2763 159.028V159.051C65.2763 159.742 65.9395 160.146 66.6856 160.146C67.7235 160.15 68.5691 159.534 68.5691 158.66V158.676Z" fill="white"/>
<path d="M72.2235 155.192H73.0558V156.147C73.2439 155.812 73.5223 155.535 73.8605 155.345C74.1986 155.155 74.5833 155.061 74.9725 155.072C76.3255 155.072 77.118 155.968 77.118 157.275V160.694H76.2823V157.474C76.2823 156.454 75.7186 155.815 74.7337 155.815C74.506 155.812 74.2801 155.855 74.07 155.941C73.86 156.028 73.6703 156.156 73.5129 156.318C73.3555 156.48 73.2336 156.672 73.155 156.882C73.0764 157.092 73.0426 157.316 73.0558 157.539V160.691H72.2235V155.192Z" fill="white"/>
<path d="M79.5553 159.103V159.081C79.5553 157.92 80.5269 157.304 81.9462 157.304C82.5285 157.298 83.1086 157.377 83.6672 157.539V157.347C83.6672 156.369 83.0504 155.844 82.0092 155.844C81.4191 155.851 80.8385 155.991 80.3114 156.251L80.0627 155.58C80.697 155.277 81.3935 155.121 82.0987 155.124C82.4259 155.101 82.7543 155.143 83.0647 155.247C83.3751 155.351 83.6611 155.515 83.9059 155.73C84.1068 155.946 84.2612 156.2 84.3598 156.476C84.4584 156.752 84.4991 157.045 84.4796 157.337V160.701H83.6771V159.853C83.441 160.158 83.1343 160.403 82.7825 160.568C82.4307 160.733 82.044 160.813 81.6544 160.802C80.6065 160.802 79.5553 160.215 79.5553 159.103ZM83.6805 158.676V158.126C83.1421 157.969 82.5837 157.89 82.0224 157.891C80.9746 157.891 80.3876 158.337 80.3876 159.028V159.051C80.3876 159.742 81.0508 160.146 81.7969 160.146C82.8382 160.15 83.6838 159.534 83.6838 158.66L83.6805 158.676Z" fill="white"/>
<path d="M87.2717 161.642L87.6497 160.99C88.2719 161.447 89.0284 161.693 89.8051 161.691C91.0387 161.691 91.8412 161.02 91.8412 159.735V159.084C91.5996 159.439 91.2728 159.731 90.8894 159.934C90.506 160.136 90.0778 160.243 89.6426 160.244C89.2964 160.25 88.9525 160.187 88.6313 160.06C88.3101 159.933 88.0182 159.743 87.7727 159.503C87.5272 159.263 87.3332 158.977 87.2022 158.662C87.0711 158.347 87.0057 158.009 87.0097 157.669V157.646C87.017 157.096 87.2011 156.563 87.5356 156.122C87.8702 155.681 88.338 155.355 88.8722 155.191C89.4064 155.027 89.9797 155.034 90.51 155.209C91.0402 155.385 91.5004 155.721 91.8246 156.17V155.192H92.6602V159.735C92.6819 160.092 92.6295 160.449 92.5064 160.786C92.3833 161.122 92.1919 161.43 91.944 161.691C91.6557 161.946 91.3187 162.142 90.9527 162.268C90.5867 162.394 90.1989 162.447 89.8118 162.425C88.9032 162.428 88.0158 162.155 87.2717 161.642ZM91.8611 157.669V157.649C91.8611 156.522 90.8663 155.788 89.8051 155.788C89.5519 155.776 89.2988 155.815 89.0616 155.903C88.8244 155.991 88.6082 156.126 88.4263 156.3C88.2444 156.474 88.1007 156.682 88.0042 156.913C87.9077 157.143 87.8604 157.39 87.8652 157.64V157.659C87.8638 157.908 87.9133 158.155 88.0107 158.386C88.1081 158.616 88.2515 158.824 88.4324 158.999C88.6132 159.174 88.8279 159.311 89.0637 159.403C89.2995 159.495 89.5516 159.539 89.8051 159.533C90.3285 159.551 90.8378 159.365 91.2227 159.016C91.6076 158.667 91.8369 158.183 91.8611 157.669Z" fill="white"/>
<path d="M95.2666 157.947V157.927C95.2666 156.34 96.404 155.062 97.9526 155.062C99.6106 155.062 100.562 156.366 100.562 157.969C100.569 158.058 100.569 158.148 100.562 158.237H96.1122C96.1278 158.738 96.3427 159.214 96.7109 159.562C97.0791 159.91 97.5712 160.102 98.0819 160.098C98.4154 160.101 98.7456 160.033 99.05 159.899C99.3544 159.765 99.626 159.568 99.8461 159.322L100.367 159.778C100.085 160.113 99.7301 160.38 99.3278 160.559C98.9255 160.738 98.4869 160.825 98.0454 160.812C97.6689 160.812 97.2963 160.737 96.9502 160.591C96.6041 160.445 96.2917 160.232 96.0319 159.964C95.7721 159.696 95.5703 159.379 95.4388 159.032C95.3072 158.686 95.2486 158.316 95.2666 157.947ZM99.7167 157.621C99.6305 156.617 99.0535 155.746 97.9294 155.746C96.9545 155.746 96.2183 156.545 96.1122 157.621H99.7167Z" fill="white"/>
<path d="M103.099 155.193H103.935V156.115C104.113 155.797 104.374 155.532 104.692 155.349C105.011 155.165 105.373 155.069 105.742 155.072C106.119 155.059 106.491 155.157 106.811 155.352C107.131 155.548 107.385 155.833 107.54 156.17C107.739 155.831 108.026 155.551 108.372 155.358C108.719 155.165 109.111 155.066 109.509 155.072C110.799 155.072 111.588 155.926 111.588 157.288V160.694H110.756V157.474C110.756 156.412 110.216 155.815 109.304 155.815C108.461 155.815 107.768 156.431 107.768 157.516V160.691H106.933V157.455C106.933 156.421 106.382 155.825 105.494 155.825C104.605 155.825 103.935 156.548 103.935 157.559V160.701H103.099V155.193Z" fill="white"/>
<path d="M114.152 157.947V157.927C114.152 156.34 115.286 155.062 116.834 155.062C118.492 155.062 119.444 156.366 119.444 157.969C119.449 158.058 119.449 158.148 119.444 158.237H114.994C115.01 158.739 115.226 159.215 115.595 159.562C115.963 159.91 116.456 160.102 116.967 160.098C117.3 160.101 117.631 160.033 117.935 159.899C118.239 159.765 118.511 159.568 118.731 159.322L119.252 159.778C118.97 160.113 118.615 160.38 118.213 160.559C117.81 160.738 117.372 160.825 116.93 160.812C116.554 160.812 116.181 160.737 115.835 160.591C115.489 160.445 115.177 160.232 114.917 159.964C114.657 159.696 114.455 159.379 114.324 159.032C114.192 158.686 114.134 158.316 114.152 157.947ZM118.602 157.621C118.512 156.617 117.939 155.746 116.814 155.746C115.839 155.746 115.103 156.545 114.994 157.621H118.602Z" fill="white"/>
<path d="M122.001 155.192H122.833V156.147C123.021 155.812 123.3 155.535 123.638 155.345C123.976 155.156 124.361 155.061 124.75 155.072C126.106 155.072 126.895 155.968 126.895 157.275V160.694H126.063V157.474C126.063 156.454 125.499 155.815 124.514 155.815C124.286 155.811 124.06 155.854 123.85 155.94C123.639 156.027 123.449 156.155 123.291 156.317C123.133 156.478 123.011 156.671 122.932 156.881C122.854 157.091 122.82 157.315 122.833 157.539V160.691H122.001V155.192Z" fill="white"/>
<path d="M130.042 159.224V155.903H129.263V155.192H130.042V153.53H130.878V155.192H132.652V155.912H130.878V159.13C130.878 159.798 131.256 160.042 131.82 160.042C132.102 160.044 132.38 159.979 132.632 159.853V160.554C132.325 160.712 131.984 160.793 131.637 160.789C130.725 160.779 130.042 160.342 130.042 159.224Z" fill="white"/>
</svg>
